<?xml version="1.0" encoding="UTF-8" standalone="no"?>
<!-- Created with Inkscape (http://www.inkscape.org/) -->

<svg
   xmlns:dc="http://purl.org/dc/elements/1.1/"
   xmlns:cc="http://creativecommons.org/ns#"
   xmlns:rdf="http://www.w3.org/1999/02/22-rdf-syntax-ns#"
   xmlns:svg="http://www.w3.org/2000/svg"
   xmlns="http://www.w3.org/2000/svg"
   xmlns:sodipodi="http://sodipodi.sourceforge.net/DTD/sodipodi-0.dtd"
   xmlns:inkscape="http://www.inkscape.org/namespaces/inkscape"
   width="100mm"
   height="100mm"
   viewBox="0 0 100 100"
   version="1.1"
   id="svg3925"
   inkscape:version="0.92.2 2405546, 2018-03-11"
   sodipodi:docname="alfred.svg">
  <defs
     id="defs3919" />
  <sodipodi:namedview
     id="base"
     pagecolor="#ffffff"
     bordercolor="#666666"
     borderopacity="1.0"
     inkscape:pageopacity="0.0"
     inkscape:pageshadow="2"
     inkscape:zoom="1.93991"
     inkscape:cx="183.76597"
     inkscape:cy="258.66328"
     inkscape:document-units="mm"
     inkscape:current-layer="layer1"
     showgrid="false"
     inkscape:window-width="2556"
     inkscape:window-height="1404"
     inkscape:window-x="0"
     inkscape:window-y="32"
     inkscape:window-maximized="0" />
  <metadata
     id="metadata3922">
    <rdf:RDF>
      <cc:Work
         rdf:about="">
        <dc:format>image/svg+xml</dc:format>
        <dc:type
           rdf:resource="http://purl.org/dc/dcmitype/StillImage" />
        <dc:title></dc:title>
      </cc:Work>
    </rdf:RDF>
  </metadata>
  <g
     inkscape:label="Layer 1"
     inkscape:groupmode="layer"
     id="layer1"
     transform="translate(-54.376828,-67.275865)">
    <path
       style="fill:#000000;stroke-width:0.22468074"
       d="m 62.672495,158.84183 c -1.551505,-0.67524 -1.433081,2.0507 -1.433081,-32.98711 0,-34.082074 -0.0545,-32.492471 1.150617,-33.553991 0.293968,-0.25893 2.325942,-1.489346 4.515495,-2.734242 l 3.981009,-2.263453 0.663425,1.224884 c 0.364885,0.673685 7.923152,15.171872 16.79615,32.218172 8.872997,17.04629 16.20442,30.91989 16.29204,30.8302 0.13864,-0.14194 7.74121,-14.73629 28.2099,-54.153511 4.76814,-9.182171 5.32096,-10.147005 5.65184,-9.863991 0.20168,0.172538 2.11828,1.69967 4.25908,3.393633 3.12032,2.469038 3.97719,3.266848 4.32015,4.022278 0.4139,0.91168 0.42799,1.94433 0.43276,31.729781 0.006,34.19039 0.13029,31.47509 -1.47762,32.14689 -1.10499,0.46173 -82.300366,0.45242 -83.361765,-0.01 z m 39.579575,-31.36979 c -4.15707,-2.07372 -4.138367,-7.93758 0.0319,-10.00869 0.59655,-0.29628 1.33813,-0.42631 2.43115,-0.42631 1.31421,0 1.74696,0.1024 2.6324,0.62289 3.28535,1.93124 3.78838,6.22243 1.03836,8.85849 -0.41247,0.39535 -1.12582,0.87561 -1.58524,1.06723 -1.18496,0.49423 -3.44315,0.43783 -4.54859,-0.11361 z m 1.00119,-18.17173 c -2.51815,-0.76598 -4.087737,-2.85811 -4.087737,-5.44862 0,-2.17605 1.345987,-4.210651 3.335417,-5.041891 0.98815,-0.41288 3.26527,-0.39195 4.29971,0.0395 1.74656,0.72847 3.11217,2.597381 3.34705,4.580561 0.43422,3.66626 -3.40207,6.93281 -6.89444,5.87046 z M 82.955928,89.552133 c -0.328072,-0.362517 -0.371844,-1.180519 -0.371844,-6.949055 0,-7.087822 0.02667,-7.244312 1.235519,-7.244312 0.291161,0 3.728568,0.815118 7.638688,1.811368 l 7.109305,1.811368 0.891124,-1.012369 c 1.34043,-1.522806 3.04783,-2.275047 5.14408,-2.266364 2.1673,0.0088 3.64056,0.638245 5.0686,2.16494 l 1.04064,1.112527 7.18727,-1.823834 c 3.953,-1.003108 7.45448,-1.79266 7.78103,-1.754562 1.07181,0.125042 1.15893,0.663995 1.16253,7.192309 0.004,6.268335 -0.0939,7.002103 -0.96475,7.278536 -0.26108,0.08286 -3.54705,-0.64426 -7.81488,-1.729281 l -7.36438,-1.872265 -0.88509,1.005504 c -2.04765,2.32627 -5.57119,2.983928 -8.36117,1.560589 -0.5197,-0.265132 -1.39105,-0.941103 -1.936331,-1.502158 l -0.991423,-1.020095 -7.29387,1.824016 c -4.011629,1.003209 -7.43097,1.824019 -7.598538,1.824019 -0.167567,0 -0.471995,-0.184896 -0.67651,-0.410881 z"
       id="path3992"
       inkscape:connector-curvature="0" />
  </g>
</svg>
