<?xml version="1.0" encoding="UTF-8" standalone="no"?>
<!-- Created with Inkscape (http://www.inkscape.org/) -->

<svg
   xmlns:dc="http://purl.org/dc/elements/1.1/"
   xmlns:cc="http://creativecommons.org/ns#"
   xmlns:rdf="http://www.w3.org/1999/02/22-rdf-syntax-ns#"
   xmlns:svg="http://www.w3.org/2000/svg"
   xmlns="http://www.w3.org/2000/svg"
   xmlns:sodipodi="http://sodipodi.sourceforge.net/DTD/sodipodi-0.dtd"
   xmlns:inkscape="http://www.inkscape.org/namespaces/inkscape"
   width="86.278984mm"
   height="83.834198mm"
   viewBox="0 0 86.278987 83.834198"
   version="1.1"
   id="svg3925"
   inkscape:version="0.92.2 2405546, 2018-03-11"
   sodipodi:docname="alfred.svg">
  <defs
     id="defs3919" />
  <sodipodi:namedview
     id="base"
     pagecolor="#ffffff"
     bordercolor="#666666"
     borderopacity="1.0"
     inkscape:pageopacity="0.0"
     inkscape:pageshadow="2"
     inkscape:zoom="1.93991"
     inkscape:cx="-23.202398"
     inkscape:cy="258.66328"
     inkscape:document-units="mm"
     inkscape:current-layer="layer1"
     showgrid="false"
     inkscape:window-width="2556"
     inkscape:window-height="1404"
     inkscape:window-x="0"
     inkscape:window-y="32"
     inkscape:window-maximized="0" />
  <metadata
     id="metadata3922">
    <rdf:RDF>
      <cc:Work
         rdf:about="">
        <dc:format>image/svg+xml</dc:format>
        <dc:type
           rdf:resource="http://purl.org/dc/dcmitype/StillImage" />
        <dc:title></dc:title>
      </cc:Work>
    </rdf:RDF>
  </metadata>
  <g
     inkscape:label="Layer 1"
     inkscape:groupmode="layer"
     id="layer1"
     transform="translate(-54.376828,-83.441667)">
    <path
       style="fill:#ffffff;stroke-width:0.22468074"
       d="m 55.811986,166.92473 c -1.551505,-0.67524 -1.433081,2.0507 -1.433081,-32.98711 0,-34.082073 -0.0545,-32.49247 1.150617,-33.55399 0.293968,-0.25893 2.325942,-1.489346 4.515495,-2.734242 l 3.981009,-2.263453 0.663425,1.224884 c 0.364885,0.673685 7.923152,15.171871 16.79615,32.218171 8.872997,17.04629 16.204417,30.91989 16.292042,30.8302 0.138642,-0.14194 7.741207,-14.73629 28.209897,-54.15351 4.76814,-9.182171 5.32096,-10.147005 5.65184,-9.863991 0.20168,0.172538 2.11828,1.69967 4.25908,3.393633 3.12032,2.469038 3.97719,3.266848 4.32015,4.022278 0.4139,0.91168 0.42799,1.94433 0.43276,31.72978 0.006,34.19039 0.13029,31.47509 -1.47762,32.14689 -1.10499,0.46173 -82.300365,0.45242 -83.361764,-0.01 z m 39.579576,-31.36979 c -4.157071,-2.07372 -4.138368,-7.93758 0.03191,-10.00869 0.596547,-0.29628 1.338131,-0.42631 2.431149,-0.42631 1.314211,0 1.746959,0.1024 2.632399,0.62289 3.28535,1.93124 3.78838,6.22243 1.03836,8.85849 -0.41247,0.39535 -1.12582,0.87561 -1.585241,1.06723 -1.184956,0.49423 -3.443148,0.43783 -4.548586,-0.11361 z m 1.001189,-18.17173 c -2.518152,-0.76598 -4.087737,-2.85811 -4.087737,-5.44862 0,-2.17605 1.345984,-4.21065 3.335419,-5.04189 0.988144,-0.41288 3.265272,-0.39195 4.299705,0.0395 1.746562,0.72847 3.112172,2.59738 3.347052,4.58056 0.43422,3.66626 -3.402073,6.93281 -6.894439,5.87046 z M 76.095419,97.635034 c -0.328072,-0.362517 -0.371844,-1.180519 -0.371844,-6.949055 0,-7.087822 0.02667,-7.244312 1.235519,-7.244312 0.291161,0 3.728568,0.815118 7.638688,1.811368 l 7.109305,1.811368 0.891124,-1.012369 c 1.340426,-1.522806 3.047827,-2.275047 5.144077,-2.266364 2.167298,0.0088 3.640562,0.638245 5.068602,2.16494 l 1.04064,1.112527 7.18727,-1.823834 c 3.953,-1.003108 7.45448,-1.79266 7.78103,-1.754562 1.07181,0.125042 1.15893,0.663995 1.16253,7.192309 0.004,6.268335 -0.0939,7.002103 -0.96475,7.278536 -0.26108,0.08286 -3.54705,-0.64426 -7.81488,-1.729281 l -7.36438,-1.872265 -0.88509,1.005504 c -2.04765,2.32627 -5.571194,2.983928 -8.361166,1.560589 C 94.07239,96.655001 93.20104,95.97903 92.65576,95.417975 l -0.991423,-1.020095 -7.29387,1.824016 c -4.011629,1.003209 -7.43097,1.824019 -7.598538,1.824019 -0.167567,0 -0.471995,-0.184896 -0.67651,-0.410881 z"
       id="path3992"
       inkscape:connector-curvature="0" />
  </g>
</svg>
