<?xml version="1.0" encoding="UTF-8" standalone="no"?>
<!-- Created with Inkscape (http://www.inkscape.org/) -->

<svg
   xmlns:dc="http://purl.org/dc/elements/1.1/"
   xmlns:cc="http://creativecommons.org/ns#"
   xmlns:rdf="http://www.w3.org/1999/02/22-rdf-syntax-ns#"
   xmlns:svg="http://www.w3.org/2000/svg"
   xmlns="http://www.w3.org/2000/svg"
   xmlns:sodipodi="http://sodipodi.sourceforge.net/DTD/sodipodi-0.dtd"
   xmlns:inkscape="http://www.inkscape.org/namespaces/inkscape"
   width="330"
   height="330"
   viewBox="0 0 160 160"
   version="1.1"
   id="svg3925"
   inkscape:version="0.92.4 5da689c313, 2019-01-14"
   sodipodi:docname="alfred.svg"
   inkscape:export-filename="/home/falko/src/alfred/ui/src/assets/icons/alfred-512x512.png"
   inkscape:export-xdpi="163.84"
   inkscape:export-ydpi="163.84">
  <defs
     id="defs3919" />
  <sodipodi:namedview
     id="base"
     pagecolor="#ffffff"
     bordercolor="#666666"
     borderopacity="1.0"
     inkscape:pageopacity="0.0"
     inkscape:pageshadow="2"
     inkscape:zoom="2.743447"
     inkscape:cx="43.866352"
     inkscape:cy="56.628085"
     inkscape:document-units="mm"
     inkscape:current-layer="layer1"
     showgrid="false"
     inkscape:window-width="3840"
     inkscape:window-height="2110"
     inkscape:window-x="0"
     inkscape:window-y="50"
     inkscape:window-maximized="0"
     units="px"
     inkscape:pagecheckerboard="true"
     fit-margin-top="0"
     fit-margin-left="0"
     fit-margin-right="0"
     fit-margin-bottom="0" />
  <metadata
     id="metadata3922">
    <rdf:RDF>
      <cc:Work
         rdf:about="">
        <dc:format>image/svg+xml</dc:format>
        <dc:type
           rdf:resource="http://purl.org/dc/dcmitype/StillImage" />
        <dc:title></dc:title>
      </cc:Work>
    </rdf:RDF>
  </metadata>
  <g
     inkscape:label="Layer 1"
     inkscape:groupmode="layer"
     id="layer1"
     transform="translate(-91.237337,-41.880461)">
    <path
       style="fill:#000000;stroke-width:0.22468074"
       d="m 129.533,163.44642 c -1.5515,-0.67524 -1.43308,2.0507 -1.43308,-32.98711 0,-34.082066 -0.0545,-32.492466 1.15062,-33.553986 0.29397,-0.25893 2.32594,-1.48934 4.51549,-2.73424 l 3.98102,-2.26345 0.66342,1.22488 c 0.36489,0.67369 7.92315,15.171866 16.79615,32.218166 8.873,17.04629 16.20442,30.91989 16.29204,30.8302 0.13864,-0.14194 7.74121,-14.73629 28.2099,-54.15351 4.76814,-9.182166 5.32096,-10.146996 5.65184,-9.863986 0.20168,0.17254 2.11828,1.69967 4.25908,3.39364 3.12032,2.46903 3.97719,3.26684 4.32015,4.02227 0.4139,0.911676 0.42799,1.944326 0.43276,31.729776 0.006,34.19039 0.13029,31.47509 -1.47762,32.14689 -1.10499,0.46173 -82.30037,0.45242 -83.36177,-0.01 z m 39.57958,-31.36979 c -4.15707,-2.07372 -4.13837,-7.93758 0.0319,-10.00869 0.59655,-0.29628 1.33813,-0.42631 2.43115,-0.42631 1.31421,0 1.74696,0.1024 2.6324,0.62289 3.28535,1.93124 3.78838,6.22243 1.03836,8.85849 -0.41247,0.39535 -1.12582,0.87561 -1.58524,1.06723 -1.18496,0.49423 -3.44315,0.43783 -4.54859,-0.11361 z m 1.00119,-18.17173 c -2.51815,-0.76598 -4.08774,-2.85811 -4.08774,-5.44862 0,-2.17605 1.34599,-4.21065 3.33542,-5.04189 0.98815,-0.41288 3.26527,-0.39195 4.29971,0.0395 1.74656,0.72847 3.11217,2.59738 3.34705,4.58056 0.43422,3.66626 -3.40207,6.93281 -6.89444,5.87046 z M 149.81644,94.156734 c -0.32807,-0.36252 -0.37185,-1.18052 -0.37185,-6.94906 0,-7.08782 0.0267,-7.24431 1.23552,-7.24431 0.29116,0 3.72857,0.81512 7.63869,1.81137 l 7.10931,1.81137 0.89112,-1.01237 c 1.34043,-1.52281 3.04783,-2.27505 5.14408,-2.26637 2.1673,0.009 3.64056,0.63825 5.0686,2.16494 l 1.04064,1.11253 7.18727,-1.82383 c 3.953,-1.00311 7.45448,-1.79266 7.78103,-1.75457 1.07181,0.12505 1.15893,0.664 1.16253,7.19231 0.004,6.26834 -0.0939,7.00211 -0.96475,7.27854 -0.26108,0.0829 -3.54705,-0.64426 -7.81488,-1.72928 l -7.36438,-1.87227 -0.88509,1.00551 c -2.04765,2.32627 -5.57119,2.98393 -8.36117,1.56059 -0.5197,-0.26514 -1.39105,-0.94111 -1.93633,-1.50216 l -0.99142,-1.0201 -7.29387,1.82402 c -4.01163,1.00321 -7.43097,1.82402 -7.59854,1.82402 -0.16757,0 -0.472,-0.1849 -0.67651,-0.41088 z"
       id="path3992"
       inkscape:connector-curvature="0" />
  </g>
</svg>
